<mxfile host="app.diagrams.net" modified="2020-09-19T08:55:06.356Z" agent="5.0 (X11)" etag="ZuBZigEIPqk-VniwY5mo" version="13.7.3" type="github">
  <diagram id="wZzat7nSYCwWzSf6gvmp" name="Page-1">
    <mxGraphModel dx="1214" dy="658" grid="1" gridSize="10" guides="1" tooltips="1" connect="1" arrows="1" fold="1" page="1" pageScale="1" pageWidth="827" pageHeight="1169" math="0" shadow="0">
      <root>
        <mxCell id="0" />
        <mxCell id="1" parent="0" />
        <mxCell id="cinMizGHuHrlSsfMAscX-9" value="" style="rounded=0;whiteSpace=wrap;html=1;" vertex="1" parent="1">
          <mxGeometry x="160" y="380" width="500" height="80" as="geometry" />
        </mxCell>
        <mxCell id="cinMizGHuHrlSsfMAscX-7" value="" style="rounded=0;whiteSpace=wrap;html=1;" vertex="1" parent="1">
          <mxGeometry x="160" y="260" width="500" height="110" as="geometry" />
        </mxCell>
        <mxCell id="cinMizGHuHrlSsfMAscX-6" value="" style="rounded=0;whiteSpace=wrap;html=1;" vertex="1" parent="1">
          <mxGeometry x="160" y="170" width="500" height="80" as="geometry" />
        </mxCell>
        <mxCell id="cinMizGHuHrlSsfMAscX-1" value="&lt;b&gt;Kalah API - Controller - Spring Web&lt;/b&gt;" style="rounded=0;whiteSpace=wrap;html=1;" vertex="1" parent="1">
          <mxGeometry x="170" y="180" width="320" height="60" as="geometry" />
        </mxCell>
        <mxCell id="cinMizGHuHrlSsfMAscX-2" value="&lt;div&gt;&lt;b&gt;Kalah API Model&lt;/b&gt; &lt;br&gt;&lt;/div&gt;&lt;div&gt;Auto Generated From Description&lt;/div&gt;" style="rounded=0;whiteSpace=wrap;html=1;" vertex="1" parent="1">
          <mxGeometry x="500" y="180" width="150" height="60" as="geometry" />
        </mxCell>
        <mxCell id="cinMizGHuHrlSsfMAscX-3" value="&lt;b&gt;Kalah Service&lt;/b&gt;" style="rounded=0;whiteSpace=wrap;html=1;" vertex="1" parent="1">
          <mxGeometry x="170" y="270" width="480" height="40" as="geometry" />
        </mxCell>
        <mxCell id="cinMizGHuHrlSsfMAscX-4" value="Map" style="shape=datastore;whiteSpace=wrap;html=1;" vertex="1" parent="1">
          <mxGeometry x="320" y="390" width="200" height="60" as="geometry" />
        </mxCell>
        <mxCell id="cinMizGHuHrlSsfMAscX-5" value="&lt;b&gt;Kalah Game Model&lt;/b&gt;" style="rounded=0;whiteSpace=wrap;html=1;" vertex="1" parent="1">
          <mxGeometry x="170" y="320" width="480" height="40" as="geometry" />
        </mxCell>
        <mxCell id="cinMizGHuHrlSsfMAscX-8" value="Clent" style="shape=umlActor;verticalLabelPosition=bottom;verticalAlign=top;html=1;outlineConnect=0;" vertex="1" parent="1">
          <mxGeometry x="405" y="70" width="30" height="60" as="geometry" />
        </mxCell>
        <mxCell id="cinMizGHuHrlSsfMAscX-12" value="" style="edgeStyle=orthogonalEdgeStyle;rounded=0;orthogonalLoop=1;jettySize=auto;html=1;entryX=1;entryY=0.5;entryDx=0;entryDy=0;endArrow=none;endFill=0;dashed=1;" edge="1" parent="1" source="cinMizGHuHrlSsfMAscX-11" target="cinMizGHuHrlSsfMAscX-4">
          <mxGeometry relative="1" as="geometry">
            <Array as="points">
              <mxPoint x="600" y="420" />
              <mxPoint x="600" y="420" />
            </Array>
          </mxGeometry>
        </mxCell>
        <mxCell id="cinMizGHuHrlSsfMAscX-11" value="Just a Map" style="shape=note;size=20;whiteSpace=wrap;html=1;" vertex="1" parent="1">
          <mxGeometry x="680" y="390" width="100" height="60" as="geometry" />
        </mxCell>
      </root>
    </mxGraphModel>
  </diagram>
</mxfile>
